#!OML:ASF E:/inclinewalkrobotboard/Project1/Captureday1/Session1/subject1.ASF
:FULLY-SPECIFIED
:DEGREES
113
root 0 0 0 1.1062353751759453 -3.7044270201020995 1.8135606274764096
lowerback 11.91028743034906 0.8626572355498676 -0.028875653938780332
upperback -4.225907367562129 1.0971527691899985 -0.5455843103341194
thorax -11.2893894709315 0.5011136646350842 -0.807441305210698
lowerneck -5.8197333563642575 1.475791960789125 4.567218690040212
upperneck 18.089944410465254 2.931791288490542 -8.330589678033853
head 6.614759748467188 1.0656927796098037 -3.221786797930964
rclavicle 1.446932809909326E-15 -1.2123136670960939E-15
rhumerus 19.412138512300793 14.029817509766733 -48.378409009616796
rradius 71.73943811008404
rwrist 26.666415525246684
rhand -34.61988659741448 -56.263585120517035
rfingers 7.125020000000028
rthumb -7.761789157300935 -86.19462379792364
lclavicle 1.2418886938950615E-15 -1.893009774415039E-15
lhumerus 20.741905609125162 -12.306547758109314 44.86883103315615
lradius 69.75429187419466
lwrist -22.66555888819952
lhand -44.49062199756323 -69.26373413859093
lfingers 7.12502000000002
lthumb -17.317712753462047 -39.98730114822401
rfemur -24.64528471246924 -2.097109605443149 17.18181763566676
rtibia 53.836678076679604
rfoot -29.09527582977274 -17.029429699421904
rtoes -18.31799681985678
lfemur -26.24592522766481 2.518913787226459 -18.018368110057175
ltibia 54.199873670845484
lfoot -31.063550927208365 -3.4478561693861174
ltoes -20.153242891339886
114
root 0 0 0 1.1057296702385044 -3.704798746515652 1.8136064407515644
lowerback 11.910285141357987 0.8625966932487046 -0.028787828876084498
upperback -4.225637272061804 1.0971004278501495 -0.5455038795577197
thorax -11.289084105672277 0.5010839659214991 -0.8073842584432213
lowerneck -5.818039508636412 1.4755265471797028 4.567539384439568
upperneck 18.088989508935292 2.931490472428095 -8.331461802319495
head 6.614168768891404 1.0655561934136581 -3.2221482821819016
rclavicle 1.4546044902902975E-15 -1.21233538395952E-15
rhumerus 19.41400015736427 14.031713311829021 -48.37768008945353
rradius 71.74055920663298
rwrist 26.66597123739269
rhand -34.617579079329474 -56.2607422847893
rfingers 7.125020000000028
rthumb -7.759550517019688 -86.19182582436845
lclavicle 1.2486981111471466E-15 -1.89364420089656E-15
lhumerus 20.742157953799126 -12.307577854500057 44.867869242711926
lradius 69.75471763971524
lwrist -22.66568707345177
lhand -44.489881960357096 -69.2593368290416
lfingers 7.12502000000002
lthumb -17.316983613039486 -39.982957201273194
rfemur -24.645070693114427 -2.097049517405796 17.181879098036795
rtibia 53.836615975339015
rfoot -29.095587018069267 -17.0294872899408
rtoes -18.318146816099155
lfemur -26.245517256451635 2.5192263320291266 -18.01832457837487
ltibia 54.2000015585912
lfoot -31.06340157822926 -3.447609094821711
ltoes -20.155059201153545
115
root 0 0 0 1.1062757224216144 -3.704397185806271 1.813551820880507
lowerback 11.91027556813099 0.862661406416948 -0.028871373085113644
upperback -4.225919848338512 1.0971581524939618 -0.5455890031296
thorax -11.28939573914245 0.5011159046483863 -0.8074492958621229
lowerneck -5.8197817546650406 1.4757833346848765 4.567204396622612
upperneck 18.089944832876665 2.931775200440477 -8.330548930916928
head 6.614767581092267 1.06568616395124 -3.2217734724583735
rclavicle 1.459665880599261E-15 -1.2195185251682942E-15
rhumerus 19.412827895422744 14.031038612138484 -48.38024572572899
rradius 71.74026357516232
rwrist 26.664673328385117
rhand -34.621377714437045 -56.264787794783246
rfingers 7.125020000000028
rthumb -7.763175686986863 -86.19583770539607
lclavicle 1.272211539065452E-15 -1.9044753487692446E-15
lhumerus 20.741262843563536 -12.306573308004396 44.867923747406934
lradius 69.75413952644637
lwrist -22.66564174073924
lhand -44.489625569860934 -69.26128237320611
lfingers 7.12502000000002
lthumb -17.316794539855596 -39.98539482172248
rfemur -24.644705346485523 -2.097324604749868 17.182563397877004
rtibia 53.837565117992185
rfoot -29.096810970947242 -17.030554338008173
rtoes -18.31853953143024
lfemur -26.24784013605165 2.5184728398361385 -18.018593263157232
ltibia 54.201041591001704
lfoot -31.064721625209152 -3.449289517900477
ltoes -20.150158362579617
116
root 0 0 0 1.105869558703073 -3.704699909050843 1.8135934211241722
lowerback 11.910284299869275 0.862613605850985 -0.028810854943540826
upperback -4.2257121130496955 1.0971152531830943 -0.5455259586646042
thorax -11.289167716682236 0.5010922875262935 -0.8074005699743257
lowerneck -5.81849902274708 1.475599130483436 4.567452928907023
upperneck 18.089247210594745 2.931572967918391 -8.331225347783388
head 6.6143285622388746 1.0655936584391144 -3.2220502804894555
rclavicle 1.4463658213012675E-15 -1.2109311550588257E-15
rhumerus 19.41341566576765 14.031008476475101 -48.37755400716229
rradius 71.7402281846926
rwrist 26.666314102743062
rhand -34.61825261579212 -56.26175963246836
rfingers 7.125020000000028
rthumb -7.760206057097319 -86.19290129175553
lclavicle 1.2417393079080896E-15 -1.891540557282058E-15
lhumerus 20.74214355934488 -12.307187942144106 44.86831736640278
lradius 69.75461861020567
lwrist -22.66563333127826
lhand -44.490246483411696 -69.26108398538395
lfingers 7.12502000000002
lthumb -17.317328006064365 -39.984537061221104
rfemur -24.645060151360987 -2.0970841839944834 17.1818788545699
rtibia 53.83665688471849
rfoot -29.09564549045521 -17.0295707496981
rtoes -18.31815662662301
lfemur -26.245719740462345 2.519139977080191 -18.018328316078815
ltibia 54.200116707709256
lfoot -31.06355113040624 -3.4476481437974478
ltoes -20.154433424712895
117
root 0 0 0 1.1056133304000098 -3.704880149315693 1.8136175598763646
lowerback 11.910288568692676 0.8625824352370184 -0.028766844989842666
upperback -4.2255699846691765 1.0970883154611795 -0.5454846159396818
thorax -11.289010373102398 0.5010770644848439 -0.807370580398824
lowerneck -5.8176427725454865 1.4754597903544604 4.567613486889944
upperneck 18.08875817020635 2.9314132296026285 -8.33166734654592
head 6.614027976973946 1.0655211528852795 -3.2222339382223586
rclavicle 1.4528121114521938E-15 -1.2116816065043137E-15
rhumerus 19.413948365933514 14.031630805418056 -48.37756722110352
rradius 71.74049283818789
rwrist 26.6660466071867
rhand -34.61751241288427 -56.26066286745841
rfingers 7.125020000000028
rthumb -7.759490596038354 -86.19176632200671
lclavicle 1.2467873733771474E-15 -1.8927514952058548E-15
lhumerus 20.742235619254117 -12.307625322973319 44.86783628559027
lradius 69.75476353663971
lwrist -22.665706611897413
lhand -44.48991514358975 -69.25932863019898
lfingers 7.12502000000002
lthumb -17.317014032670446 -39.9829052051151
rfemur -24.645118226074267 -2.0970602198231445 17.18187440654374
rtibia 53.8365754842814
rfoot -29.095659201691337 -17.029529144957973
rtoes -18.318131308953358
lfemur -26.245455499744015 2.5192536019917338 -18.018321251747903
ltibia 54.19995043154086
lfoot -31.063414268703287 -3.44753906740064
ltoes -20.155295224171933
118
root 0 0 0 1.1053470493825883 -3.705071985469077 1.8136413164644014
lowerback 11.910289419238214 0.8625503083170589 -0.02872005792177726
upperback -4.225425658240508 1.097060636841705 -0.5454418859953912
thorax -11.28884847511496 0.5010613513770974 -0.8073403876281986
lowerneck -5.81675078723373 1.4753174621072025 4.567781168181888
upperneck 18.088251006557865 2.9312509379539233 -8.332125859165561
head 6.6137154340860045 1.0654475323871235 -3.222424260556846
rclavicle 1.4562802445314551E-15 -1.2116954438861903E-15
rhumerus 19.41475092573202 14.032495922324024 -48.377351920079086
rradius 71.7409719052471
rwrist 26.665765725991264
rhand -34.616470489485074 -56.25927233309658
rfingers 7.125020000000028
rthumb -7.758478385805956 -86.19040114058211
lclavicle 1.2498141656184712E-15 -1.8930596882230937E-15
lhumerus 20.74229931997308 -12.30804911396724 44.86742533738897
lradius 69.75492079353978
lwrist -22.665749508278612
lhand -44.48956465184093 -69.25735144918671
lfingers 7.12502000000002
lthumb -17.316673453641386 -39.98096778049431
rfemur -24.645069609344276 -2.09704434483096 17.181898780167202
rtibia 53.836642600095054
rfoot -29.095702590696877 -17.029469897588594
rtoes -18.318189700463094
lfemur -26.245245122362093 2.519375113836598 -18.018312699507863
ltibia 54.19998644760226
lfoot -31.0633441768475 -3.447447681598141
ltoes -20.156018891570397
119
root 0 0 0 1.106011952608934 -3.704585024873997 1.8135758262073227
lowerback 11.910278824458995 0.8626293765452542 -0.028824435968523854
upperback -4.225773336506857 1.0971307173351543 -0.5455461567123119
thorax -11.289232764731635 0.501100301039737 -0.8074190308477196
lowerneck -5.818891886057777 1.4756382853186805 4.5673711416516785
upperneck 18.08943377539718 2.9316087936289845 -8.331007364342607
head 6.614454198260238 1.0656106886195218 -3.2219640817979274
rclavicle 1.4611542583018924E-15 -1.219423348076435E-15
rhumerus 19.413352717307454 14.031587668676817 -48.380039741149105
rradius 71.74056026247578
rwrist 26.664521138350754
rhand -34.62063159767558 -56.263803551991515
rfingers 7.125020000000028
rthumb -7.762452677818752 -86.19488134939702
lclavicle 1.2733279465339693E-15 -1.904505272279273E-15
lhumerus 20.741350018263674 -12.306899454896305 44.86761212357097
lradius 69.75427579596143
lwrist -22.665680935777118
lhand -44.48939832067689 -69.25989366500616
lfingers 7.12502000000002
lthumb -17.31657326914325 -39.984015274039436
rfemur -24.64470901036243 -2.0973277961822645 17.182573343689942
rtibia 53.837608016336816
rfoot -29.096880788422258 -17.030542051567572
rtoes -18.318562063938536
lfemur -26.24766620123533 2.5185706055261443 -18.018587456975098
ltibia 54.201039395811414
lfoot -31.064676577724907 -3.449188379221151
ltoes -20.1507719558714
